<svg xmlns="http://www.w3.org/2000/svg" xmlns:xlink="http://www.w3.org/1999/xlink" width="60" height="60" viewBox="0 0 60 60">
  <defs>
    <clipPath id="clip-path">
      <circle id="Ellipse_2" data-name="Ellipse 2" cx="30" cy="30" r="30" transform="translate(85 50)" fill="#fafafa" stroke="#707070" stroke-width="1"/>
    </clipPath>
  </defs>
  <g id="News_Catalyst_logo" data-name="News Catalyst logo" transform="translate(-85 -50)">
    <g id="Mask_Group_2" data-name="Mask Group 2" clip-path="url(#clip-path)">
      <g id="noun_molecule_490666" transform="translate(92.875 50.875)">
        <g id="Group_3" data-name="Group 3" transform="translate(-361.75 -549)">
          <g id="Group_2" data-name="Group 2" transform="translate(360.75 555)">
            <path id="Path_2" data-name="Path 2" d="M33.75,4.5H24.419l-5.78,9.393a.75.75,0,1,1-1.278-.786l6-9.75A.751.751,0,0,1,24,3h9.75a.75.75,0,0,1,0,1.5m10.4,8.578L36.646.369A.751.751,0,0,0,36,0H21.75A.751.751,0,0,0,21.1.369L13.6,13.078a.749.749,0,0,0,.009.778l.246.394h2.284a2.235,2.235,0,0,1,1.911,1.062l5.6,9a2.226,2.226,0,0,1,.193,1.939H36a.75.75,0,0,0,.637-.354l7.5-12.04a.749.749,0,0,0,.009-.778" fill="#f1c235" fill-rule="evenodd"/>
            <path id="Path_3" data-name="Path 3" d="M14.25,20.25H8.665L5.136,25.9a.75.75,0,0,1-1.272-.8l3.75-6a.75.75,0,0,1,.636-.352h6a.75.75,0,0,1,0,1.5m2.9,14.628,5.25-9a.749.749,0,0,0-.011-.774l-5.606-9a.749.749,0,0,0-.637-.354H6a.749.749,0,0,0-.648.372l-5.25,9a.753.753,0,0,0,0,.756l5.25,9A.749.749,0,0,0,6,35.25H16.5a.749.749,0,0,0,.648-.372" fill="#d17e28" fill-rule="evenodd"/>
            <path id="Path_4" data-name="Path 4" d="M34.571,27.75H23.043l-4.6,7.884A2.244,2.244,0,0,1,16.912,36.7l4.19,7.183a.748.748,0,0,0,.647.372h10.5a.751.751,0,0,0,.661-.395l5.25-9.75a.75.75,0,0,0-.028-.758Z" fill="#002c54" fill-rule="evenodd"/>
          </g>
        </g>
      </g>
    </g>
  </g>
</svg>
