<svg xmlns="http://www.w3.org/2000/svg" xmlns:xlink="http://www.w3.org/1999/xlink" width="366" height="65" viewBox="0 0 366 65"><defs><clipPath id="a"><rect width="366" height="65" fill="none"/></clipPath></defs><g clip-path="url(#a)"><g clip-path="url(#a)"><path d="M10.5-28H4V0h6.5V-19.15S21.65-21.5,21.85-21.5c.4,0,.55.25.55.85V0h6.5V-23.65a4.8,4.8,0,0,0-4.8-4.8c-2.65,0-13.6,2.8-13.6,2.8Zm25.65,6.15v15.7A6.615,6.615,0,0,0,42.8.5H54.4a6.615,6.615,0,0,0,6.65-6.65v-3.6h-6.5v3.1c0,.45-.15.65-.45.65h-11c-.3,0-.45-.2-.45-.65v-5.2h18.4v-10A6.615,6.615,0,0,0,54.4-28.5H42.8A6.615,6.615,0,0,0,36.15-21.85Zm18.4.5v4.5H42.65v-4.5c0-.45.15-.65.45-.65h11C54.4-22,54.55-21.8,54.55-21.35Zm50-6.65h-6.5V-7c0,.75-.15,1-.6,1H92.3c-1.9,0-3.15-1.35-3.15-4.75V-28h-6.5v17.25c0,3.4-1.2,4.75-3.15,4.75H74.35c-.45,0-.6-.25-.6-1V-28h-6.5V-7c0,4.2,2.5,7.5,6.65,7.5h5.6a6.444,6.444,0,0,0,6.4-4.95A6.524,6.524,0,0,0,92.3.5h5.6c4.15,0,6.65-3.3,6.65-7.5ZM117.7-10.6h-6.5v4.45A6.647,6.647,0,0,0,117.85.5h11.6a6.647,6.647,0,0,0,6.65-6.65v-1.9c0-4.5-2.35-7.65-9.7-9.1-4.35-.85-8.7-1.15-8.7-3.95v-.25c0-.45.15-.65.5-.65h10.95c.3,0,.45.2.45.65v1h6.5v-1.5a6.615,6.615,0,0,0-6.65-6.65h-11.6a6.615,6.615,0,0,0-6.65,6.65v1.7c0,4.5,2.45,7.25,9.8,8.6,4.3.8,8.7,1.15,8.7,4.45v.45c0,.45-.15.65-.55.65h-11c-.3,0-.45-.2-.45-.65ZM155-21.85v15.7A6.647,6.647,0,0,0,161.65.5h11.6a6.647,6.647,0,0,0,6.65-6.65v-3.6h-6.5v3.1c0,.45-.15.65-.45.65h-11c-.3,0-.45-.2-.45-.65V-21.4c0-.45.15-.6.45-.6h11c.3,0,.45.15.45.6v3.3h6.5v-3.75a6.615,6.615,0,0,0-6.65-6.65h-11.6A6.615,6.615,0,0,0,155-21.85ZM183.65-9.4v5.1a4.8,4.8,0,0,0,4.8,4.8c2.65,0,13.6-2.85,13.6-2.85V0h6.5V-21.85a6.712,6.712,0,0,0-6.65-6.65H191.4a6.744,6.744,0,0,0-6.65,6.8v1.75h6.5v-.75c0-.8.2-1.15.65-1.15h9.5c.45,0,.65.35.65,1.15v2.8l-13.45.7C187.45-17.15,183.65-15.15,183.65-9.4Zm6.5,2.4v-.9c0-2.05.3-3.25.95-3.65l10.95-1.1V-8.5s-11.1,2.35-11.35,2.35C190.35-6.15,190.15-6.25,190.15-7Zm33.8-14.55h9V-28h-9v-7.2h-6.6V-28H213.3v6.45h4.05V-7.1A7.576,7.576,0,0,0,225,.5h4.6V-6h-4.45c-.9,0-1.2-.45-1.2-1.1Zm12,12.15v5.1a4.8,4.8,0,0,0,4.8,4.8c2.65,0,13.6-2.85,13.6-2.85V0h6.5V-21.85a6.712,6.712,0,0,0-6.65-6.65H243.7a6.744,6.744,0,0,0-6.65,6.8v1.75h6.5v-.75c0-.8.2-1.15.65-1.15h9.5c.45,0,.65.35.65,1.15v2.8l-13.45.7C239.75-17.15,235.95-15.15,235.95-9.4Zm6.5,2.4v-.9c0-2.05.3-3.25.95-3.65l10.95-1.1V-8.5S243.25-6.15,243-6.15C242.65-6.15,242.45-6.25,242.45-7Zm38.7,1H276.7c-.9,0-1.2-.45-1.2-1.1V-28h-.1V-38.2h-6.5V-7.1A7.576,7.576,0,0,0,276.55.5h4.6Zm9.9-21.95H284.4L289-1.15a2.27,2.27,0,0,0,2.15,1.7h9.3l-1.1,7.25h6.2l5.7-35.75H304.7l-3.15,21.5c-.05.55-.1.7-.65.7h-6.2c-.25,0-.3-.2-.35-.35ZM322.1-10.6h-6.5v4.45A6.647,6.647,0,0,0,322.25.5h11.6a6.647,6.647,0,0,0,6.65-6.65v-1.9c0-4.5-2.35-7.65-9.7-9.1-4.35-.85-8.7-1.15-8.7-3.95v-.25c0-.45.15-.65.5-.65h10.95c.3,0,.45.2.45.65v1h6.5v-1.5a6.615,6.615,0,0,0-6.65-6.65h-11.6a6.615,6.615,0,0,0-6.65,6.65v1.7c0,4.5,2.45,7.25,9.8,8.6,4.3.8,8.7,1.15,8.7,4.45v.45c0,.45-.15.65-.55.65h-11c-.3,0-.45-.2-.45-.65Zm32.95-10.95h9V-28h-9v-7.2h-6.6V-28H344.4v6.45h4.05V-7.1A7.576,7.576,0,0,0,356.1.5h4.6V-6h-4.45c-.9,0-1.2-.45-1.2-1.1Z" transform="translate(0 52)" fill="#111"/></g></g></svg>