<?xml version="1.0" encoding="UTF-8"?>
<svg width="680px" height="54px" viewBox="0 0 680 54" version="1.1" xmlns="http://www.w3.org/2000/svg" xmlns:xlink="http://www.w3.org/1999/xlink">
    <!-- Generator: Sketch 52.3 (67297) - http://www.bohemiancoding.com/sketch -->
    <title>FBJ_LOGO_black</title>
    <desc>Created with Sketch.</desc>
    <g id="FBJ_LOGO_black" stroke="none" stroke-width="1" fill="none" fill-rule="evenodd">
        <path d="M333.290277,6.06742268 L333.290277,28.1865063 C333.290277,35.893173 329.014767,39.9575945 322.20542,39.9575945 C315.606383,39.9575945 311.119785,35.9983276 310.750575,28.3446277 L313.865489,28.0805727 C314.286887,33.781512 317.084779,37.2656357 322.311354,37.2656357 C327.431216,37.2656357 329.965054,34.3088431 329.965054,28.2916609 L329.965054,6.06742268 L333.290277,6.06742268 Z" id="Fill-1" fill="#000000"></path>
        <path d="M348.699482,39.9578282 C342.207157,39.9578282 337.244637,34.9953081 337.244637,27.8689393 C337.244637,20.7433494 342.207157,15.7808293 348.699482,15.7808293 C355.245553,15.7808293 360.208073,20.7433494 360.208073,27.8689393 C360.208073,34.9953081 355.245553,39.9578282 348.699482,39.9578282 M348.699482,37.4239908 C353.873869,37.4239908 356.829883,33.4647239 356.829883,27.8689393 C356.829883,22.2739336 353.873869,18.3146667 348.699482,18.3146667 C343.57962,18.3146667 340.623606,22.2739336 340.623606,27.8689393 C340.623606,33.4647239 343.57962,37.4239908 348.699482,37.4239908" id="Fill-3" fill="#000000"></path>
        <path d="M379.813883,16.4144055 L383.033952,16.4144055 L383.033952,39.3240962 L379.813883,39.3240962 L379.813883,35.1015533 C378.705475,37.8994456 375.643528,39.9581397 372.212371,39.9581397 C366.299565,39.9581397 363.977595,36.1040275 363.977595,30.6149553 L363.977595,16.4144055 L367.197663,16.4144055 L367.197663,30.72011 C367.197663,34.7845315 369.151203,37.4235235 373.056724,37.4235235 C376.699748,37.4235235 379.813883,34.5734433 379.813883,30.1398121 L379.813883,16.4144055 Z" id="Fill-5" fill="#000000"></path>
        <path d="M401.146021,19.6347079 C399.827304,18.9476976 399.033581,18.7366094 397.661897,18.7366094 C394.336674,18.7366094 391.644715,22.1685452 391.644715,26.7610767 L391.644715,39.3243299 L388.423867,39.3243299 L388.423867,16.4146392 L391.644715,16.4146392 L391.644715,21.2182589 C392.541255,18.578488 394.864784,15.7813746 398.242974,15.7813746 C399.668403,15.7813746 400.671656,16.0968385 401.516009,16.8368156 L401.146021,19.6347079 Z" id="Fill-7" fill="#000000"></path>
        <path d="M407.41238,39.324252 L404.192312,39.324252 L404.192312,16.4145613 L407.41238,16.4145613 L407.41238,20.6371042 C408.520788,17.8392119 411.68789,15.7812967 415.120605,15.7812967 C421.031853,15.7812967 423.512724,19.63463 423.512724,25.1237022 L423.512724,39.324252 L420.292655,39.324252 L420.292655,25.0185475 C420.292655,20.954126 418.180994,18.315134 414.275473,18.315134 C410.633228,18.315134 407.41238,21.1652142 407.41238,25.5988454 L407.41238,39.324252 Z" id="Fill-9" fill="#000000"></path>
        <path d="M446.190451,35.470685 C446.190451,36.6850263 446.930428,37.2653242 448.091024,37.2653242 C448.619134,37.2653242 449.517233,37.054236 450.149718,36.6850263 L450.149718,38.4274777 C449.463487,39.2188637 448.725068,39.7991615 447.141517,39.7991615 C444.870955,39.7991615 443.234438,37.8464009 443.129283,34.943354 C441.915721,37.6353127 438.53753,39.9572829 434.630451,39.9572829 C430.354163,39.9572829 427.504082,37.5831249 427.504082,33.623079 C427.504082,29.2946025 431.305228,27.5521512 437.005388,26.3915556 L443.129283,25.1242474 L443.129283,23.9636518 C443.129283,20.4795281 441.071368,18.3149003 437.480532,18.3149003 C433.786099,18.3149003 431.728183,20.4795281 430.935239,23.4347629 L428.190314,22.9074318 C429.087633,18.7900435 432.466603,15.781063 437.428344,15.781063 C443.129283,15.781063 446.190451,18.7900435 446.190451,24.438016 L446.190451,35.470685 Z M443.129283,27.4999633 L437.534277,28.7135258 C433.363143,29.6108454 430.777897,30.4559771 430.777897,33.5179244 C430.777897,35.6817732 432.201769,37.4771913 435.210749,37.4771913 C439.698126,37.4771913 443.129283,34.0452554 443.129283,28.9253929 L443.129283,27.4999633 Z" id="Fill-11" fill="#000000"></path>
        <polygon id="Fill-14" fill="#000000" points="452.953998 39.3237068 456.174066 39.3237068 456.174066 6.06679954 452.953998 6.06679954"></polygon>
        <path d="M461.404536,10.3438671 L464.836472,10.3438671 L464.836472,6.06757847 L461.404536,6.06757847 L461.404536,10.3438671 Z M461.511249,39.3237068 L464.731317,39.3237068 L464.731317,16.414016 L461.511249,16.414016 L461.511249,39.3237068 Z" id="Fill-15" fill="#000000"></path>
        <path d="M471.22855,31.2478305 C471.703693,35.2070974 474.395652,37.4239129 478.777095,37.4239129 C482.314186,37.4239129 484.795056,36.104417 484.795056,33.4124582 C484.795056,30.8786208 483.000417,30.0864559 479.780348,29.5061581 L475.821081,28.8199267 C471.809627,28.1329164 469.327977,26.2860893 469.327977,22.5900985 C469.327977,18.4727102 472.759913,15.7815304 477.773842,15.7815304 C483.685869,15.7815304 487.117805,18.5786438 487.487794,24.0155281 L485.005365,24.2273952 C484.425068,20.1100069 481.997164,18.3145888 477.773842,18.3145888 C474.500806,18.3145888 472.336958,19.7929851 472.336958,22.2208889 C472.336958,24.4384834 473.656454,25.5468912 476.507313,26.0220344 L480.730635,26.7074868 C485.217233,27.4474639 487.857003,29.0310149 487.857003,33.0954364 C487.857003,37.5828133 483.845549,39.9577503 478.830062,39.9577503 C473.287244,39.9577503 469.011734,37.2136037 468.641746,31.5648522 L471.22855,31.2478305 Z" id="Fill-16" fill="#000000"></path>
        <path d="M517.87803,15.7808293 C523.790057,15.7808293 525.954685,19.8460298 525.954685,25.1240137 L525.954685,39.3237847 L522.734616,39.3237847 L522.734616,25.0180802 C522.734616,20.9536586 520.88701,18.3146667 517.085865,18.3146667 C513.654708,18.3146667 510.591982,21.1647468 510.591982,25.5991569 L510.591982,39.3237847 L507.373471,39.3237847 L507.373471,25.0180802 C507.373471,20.9536586 505.525086,18.3146667 501.724719,18.3146667 C498.292005,18.3146667 495.231615,21.1647468 495.231615,25.5991569 L495.231615,39.3237847 L492.011546,39.3237847 L492.011546,16.4140939 L495.231615,16.4140939 L495.231615,20.6374158 C496.340023,17.8395235 499.084948,15.7808293 502.622039,15.7808293 C506.68646,15.7808293 509.220298,17.7857778 510.223551,20.848504 C511.436334,17.945457 514.287973,15.7808293 517.87803,15.7808293" id="Fill-18" fill="#000000"></path>
        <path d="M545.065723,39.324252 L541.791908,39.324252 L541.791908,6.06734479 L553.142378,6.06734479 C561.271221,6.06734479 565.863753,9.92067812 565.863753,16.2026942 C565.863753,22.4847102 561.271221,26.3380435 553.142378,26.3380435 L545.065723,26.3380435 L545.065723,39.324252 Z M553.142378,23.5409301 C559.423615,23.5409301 562.591496,20.9011592 562.591496,16.2026942 C562.591496,11.505008 559.423615,8.86601604 553.142378,8.86601604 L545.065723,8.86601604 L545.065723,23.5409301 L553.142378,23.5409301 Z" id="Fill-20" fill="#000000"></path>
        <path d="M581.863771,19.6347079 C580.545054,18.9476976 579.75211,18.7366094 578.379647,18.7366094 C575.053645,18.7366094 572.362465,22.1685452 572.362465,26.7610767 L572.362465,39.3243299 L569.141617,39.3243299 L569.141617,16.4146392 L572.362465,16.4146392 L572.362465,21.2182589 C573.259006,18.578488 575.582534,15.7813746 578.960724,15.7813746 C580.386153,15.7813746 581.389407,16.0968385 582.233759,16.8368156 L581.863771,19.6347079 Z" id="Fill-22" fill="#000000"></path>
        <path d="M594.264229,39.9578282 C587.771125,39.9578282 582.809384,34.9953081 582.809384,27.8689393 C582.809384,20.7433494 587.771125,15.7808293 594.264229,15.7808293 C600.808742,15.7808293 605.771262,20.7433494 605.771262,27.8689393 C605.771262,34.9953081 600.808742,39.9578282 594.264229,39.9578282 M594.264229,37.4239908 C599.437058,37.4239908 602.393851,33.4647239 602.393851,27.8689393 C602.393851,22.2739336 599.437058,18.3146667 594.264229,18.3146667 C589.143588,18.3146667 586.187574,22.2739336 586.187574,27.8689393 C586.187574,33.4647239 589.143588,37.4239908 594.264229,37.4239908" id="Fill-24" fill="#000000"></path>
        <path d="M612.883065,43.1777411 C612.883065,46.7148316 611.192802,48.9324261 607.498369,48.9324261 C605.702951,48.9324261 603.90909,48.1916701 602.799904,47.2429416 L603.803936,45.1312806 C605.016719,45.9234456 605.967006,46.3448431 607.446181,46.3448431 C608.871611,46.3448431 609.661439,45.5004903 609.661439,43.7058511 L609.661439,16.4139381 L612.883065,16.4139381 L612.883065,43.1777411 Z M609.556284,10.3437892 L612.98822,10.3437892 L612.98822,6.06750057 L609.556284,6.06750057 L609.556284,10.3437892 Z" id="Fill-26" fill="#000000"></path>
        <path d="M638.961026,31.5114181 C637.852619,36.7379931 634.050694,39.9580619 628.456467,39.9580619 C621.805242,39.9580619 616.842722,35.2595968 616.842722,28.1861947 C616.842722,20.9538923 621.750717,15.781063 628.243821,15.781063 C635.423936,15.781063 639.012435,20.9538923 639.012435,27.1829416 L639.012435,28.6613379 L620.167945,28.6613379 C620.379812,33.7290126 623.916124,37.318291 628.456467,37.318291 C632.67901,37.318291 635.265036,35.2074089 636.216101,31.1422085 L638.961026,31.5114181 Z M635.582836,26.3915556 C635.476124,22.1682337 633.101187,18.3149003 628.243821,18.3149003 C623.705036,18.3149003 620.749022,22.1152669 620.220912,26.3915556 L635.582836,26.3915556 Z" id="Fill-28" fill="#000000"></path>
        <path d="M653.329278,15.7808293 C659.980504,15.7808293 663.570561,20.2674273 663.992738,25.8102451 L661.037503,26.0213333 C660.720481,21.63989 658.027743,18.4727881 653.223345,18.4727881 C648.420504,18.4727881 645.147468,22.2209668 645.147468,27.8689393 C645.147468,33.5176907 648.420504,37.2658694 653.223345,37.2658694 C658.027743,37.2658694 660.720481,33.9928339 661.037503,29.6106117 L663.992738,29.9276334 C663.570561,35.4704513 659.980504,39.9578282 653.329278,39.9578282 C646.519931,39.9578282 641.769278,35.1534296 641.769278,27.8689393 C641.769278,20.584449 646.519931,15.7808293 653.329278,15.7808293" id="Fill-30" fill="#000000"></path>
        <path d="M669.218845,18.7899656 L665.682534,18.7899656 L665.682534,17.2064147 L667.054997,16.9423597 C669.166658,16.5194044 669.588834,15.5169301 670.063198,13.2993356 L670.750208,10.027079 L672.385947,10.027079 L672.385947,16.4142497 L679.037173,16.4142497 L679.037173,18.7899656 L672.385947,18.7899656 L672.385947,34.3092325 C672.385947,36.3679267 673.2303,37.3711798 675.34274,37.3711798 C676.92707,37.3711798 678.509063,36.5790149 679.829338,35.7876289 L679.829338,38.0566323 C678.19282,39.3239404 676.556302,39.957984 674.232774,39.957984 C671.171606,39.957984 669.218845,38.4273998 669.218845,34.2562658 L669.218845,18.7899656 Z" id="Fill-32" fill="#000000"></path>
        <path d="M16.0388087,6.27095533 C13.6264834,6.27095533 12.930126,7.34976403 12.930126,9.72781672 L12.930126,13.6707262 L19.3632532,13.6707262 L18.7206415,20.0446552 L12.930126,20.0446552 L12.930126,39.3892142 L5.20710195,39.3892142 L5.20710195,20.0446552 L5.32907052e-15,20.0446552 L5.32907052e-15,13.6707262 L5.20710195,13.6707262 L5.20710195,9.83141352 C5.20710195,3.40763345 7.7814433,-0.000155784651 14.970126,-0.000155784651 C16.5240779,-0.000155784651 18.3483162,0.112788087 19.4715235,0.269351661 L19.4715235,6.27095533 L16.0388087,6.27095533 Z" id="Fill-34" fill="#000000"></path>
        <path d="M19.8991523,25.7139702 C19.8991523,18.53074 23.2773425,13.1273494 30.3577549,13.1273494 C34.2173196,13.1273494 36.5805727,15.1322978 37.7037801,17.6139473 L37.7037801,13.6710378 L45.1027721,13.6710378 L45.1027721,39.3848522 L37.7037801,39.3848522 L37.7037801,35.4917938 C36.6350974,37.9773379 34.2173196,39.924646 30.3585338,39.924646 C23.2773425,39.924646 19.8991523,34.525929 19.8991523,27.3372463 L19.8991523,25.7139702 Z M27.6221764,27.4447377 C27.6221764,31.2793769 29.0148912,33.8194456 32.6088431,33.8194456 C35.7712715,33.8194456 37.379748,31.4998121 37.379748,27.8225155 L37.379748,25.228701 C37.379748,21.5560779 35.7712715,19.2364444 32.6088431,19.2364444 C29.0148912,19.2364444 27.6221764,21.7718396 27.6221764,25.6064788 L27.6221764,27.4447377 Z" id="Fill-36" fill="#000000"></path>
        <path d="M61.1923666,13.1306208 C64.1982314,13.1306208 67.0374066,13.7825796 68.5913585,14.8613883 L66.8753906,20.3683757 C65.693764,19.7748362 63.7612554,19.1812967 61.7267079,19.1812967 C57.54389,19.1812967 55.7196518,21.613874 55.7196518,25.7717663 L55.7196518,27.2867721 C55.7196518,31.4446644 57.54389,33.8717892 61.7267079,33.8717892 C63.7612554,33.8717892 65.693764,33.2790286 66.8753906,32.6854891 L68.5913585,38.1971501 C67.0374066,39.2759588 64.1982314,39.9279175 61.1923666,39.9279175 C52.1256999,39.9279175 47.9974066,35.0097961 47.9974066,27.1200825 L47.9974066,25.9337824 C47.9974066,18.0440687 52.1256999,13.1306208 61.1923666,13.1306208" id="Fill-38" fill="#000000"></path>
        <path d="M69.6087881,27.503079 L69.6087881,25.2278442 C69.6087881,17.9363436 73.7378603,13.1311661 82.1619152,13.1311661 C90.0960275,13.1311661 93.5770355,17.9908683 93.5770355,25.1250263 L93.5770355,29.2244994 L77.3318121,29.2244994 C77.4938282,32.7397801 79.0477801,34.3093104 83.3388683,34.3093104 C86.2364628,34.3093104 89.2867262,33.7110974 91.541709,32.7397801 L92.9344238,38.089425 C90.8998763,39.1682337 86.7170584,39.9775349 83.0148362,39.9775349 C73.2572646,39.9775349 69.6087881,35.064866 69.6087881,27.503079 M77.3318121,24.1490355 L86.6586392,24.1490355 L86.6586392,23.5017503 C86.6586392,20.6968477 85.5354318,18.480811 82.1619152,18.480811 C78.6707812,18.480811 77.3318121,20.6968477 77.3318121,24.1490355" id="Fill-40" fill="#000000"></path>
        <path d="M122.218433,27.341764 C122.218433,34.5249943 118.786497,39.9291638 111.705306,39.9291638 C107.84652,39.9291638 105.163908,37.9771821 104.090552,35.4963116 L104.090552,39.3846964 L96.7990515,39.3846964 L96.7990515,0.764902635 L104.516623,0.0537457045 L104.516623,17.2406873 C105.644504,14.970126 108.116027,13.1318671 111.705306,13.1318671 C118.786497,13.1318671 122.218433,18.5305842 122.218433,25.718488 L122.218433,27.341764 Z M114.495409,25.5572509 C114.495409,21.9336999 113.098021,19.2316151 109.401251,19.2316151 C106.23337,19.2316151 104.516623,21.5068499 104.516623,25.1747995 L104.516623,27.8761054 C104.516623,31.554181 106.23337,33.8192898 109.401251,33.8192898 C113.098021,33.8192898 114.495409,31.117205 114.495409,27.4983276 L114.495409,25.5572509 Z" id="Fill-42" fill="#000000"></path>
        <path d="M124.790282,27.178268 L124.790282,25.8836976 C124.790282,18.4800321 128.9731,13.1296082 137.499973,13.1296082 C146.022172,13.1296082 150.209663,18.4800321 150.209663,25.8836976 L150.209663,27.178268 C150.209663,34.5725865 146.022172,39.9269049 137.499973,39.9269049 C128.9731,39.9269049 124.790282,34.5725865 124.790282,27.178268 Z M142.486639,25.3392302 C142.486639,21.931441 141.089251,19.2348087 137.499973,19.2348087 C133.906021,19.2348087 132.508632,21.931441 132.508632,25.3392302 L132.508632,27.7126094 C132.508632,31.1211775 133.906021,33.8224834 137.499973,33.8224834 C141.089251,33.8224834 142.486639,31.1211775 142.486639,27.7126094 L142.486639,25.3392302 Z" id="Fill-44" fill="#000000"></path>
        <path d="M152.781278,27.178268 L152.781278,25.8836976 C152.781278,18.4800321 156.964096,13.1296082 165.490969,13.1296082 C174.017842,13.1296082 178.201439,18.4800321 178.201439,25.8836976 L178.201439,27.178268 C178.201439,34.5725865 174.017842,39.9269049 165.490969,39.9269049 C156.964096,39.9269049 152.781278,34.5725865 152.781278,27.178268 Z M170.477636,25.3392302 C170.477636,21.931441 169.080247,19.2348087 165.490969,19.2348087 C161.897017,19.2348087 160.504302,21.931441 160.504302,25.3392302 L160.504302,27.7126094 C160.504302,31.1211775 161.897017,33.8224834 165.490969,33.8224834 C169.080247,33.8224834 170.477636,31.1211775 170.477636,27.7126094 L170.477636,25.3392302 Z" id="Fill-46" fill="#000000"></path>
        <polygon id="Fill-49" fill="#000000" points="181.092958 0.76139748 181.092958 39.3858648 188.815982 39.3858648 188.815982 26.7937915 196.749315 39.3858648 204.957608 39.3858648 196.646497 26.3677205 204.634355 13.6720504 196.430735 13.6720504 188.815982 25.936197 188.815982 0.0603665521"></polygon>
        <path d="M260.235065,53.0009759 C250.139441,53.0009759 241.955294,44.8168293 241.955294,34.721205 C241.955294,26.6609072 247.172522,19.8188454 254.414172,17.3878259 L255.325512,18.817929 C252.783107,20.441205 251.096738,23.2873906 251.096738,26.5277113 C251.096738,31.575134 255.1892,35.6675968 260.236623,35.6675968 L260.235065,53.0009759 Z" id="Fill-50" fill="#055FF5"></path>
        <path d="M240.257242,53.0009759 C230.161617,53.0009759 221.977471,44.8168293 221.977471,34.721205 C221.977471,26.6609072 227.19392,19.8188454 234.435569,17.3878259 L235.347688,18.817929 C232.805283,20.441205 231.118914,23.2873906 231.118914,26.5277113 C231.118914,31.575134 235.210598,35.6675968 240.2588,35.6675968 L240.257242,53.0009759 Z" id="Fill-53" fill="#055FF5"></path>
        <path d="M260.238493,0.0539793814 C270.334117,0.0539793814 278.518263,8.238126 278.518263,18.3337503 C278.518263,26.3940481 273.301814,33.23611 266.060165,35.6671294 L265.148046,34.2370263 C267.690451,32.6137503 269.37682,29.7675647 269.37682,26.527244 C269.37682,21.4798213 265.284357,17.3873585 260.236935,17.3873585 L260.238493,0.0539793814 Z" id="Fill-56" fill="#055FF5"></path>
        <path d="M280.216628,0.0539793814 C290.312252,0.0539793814 298.496399,8.238126 298.496399,18.3337503 C298.496399,26.3940481 293.27995,33.23611 286.0383,35.6671294 L285.126181,34.2370263 C287.668586,32.6137503 289.354955,29.7675647 289.354955,26.527244 C289.354955,21.4798213 285.262493,17.3873585 280.21507,17.3873585 L280.216628,0.0539793814 Z" id="Fill-58" fill="#055FF5"></path>
    </g>
</svg>