<svg xmlns="http://www.w3.org/2000/svg" xmlns:xlink="http://www.w3.org/1999/xlink" width="60" height="60" viewBox="0 0 60 60"><defs><clipPath id="a"><rect width="60" height="60" fill="none"/></clipPath></defs><g clip-path="url(#a)"><g transform="translate(-85 -50)"><g transform="translate(85.277 50.101)"><g transform="translate(1.233 1.234)"><g transform="translate(0)"><path d="M39.868,5.86H27.718L20.192,18.092a.977.977,0,1,1-1.664-1.024l7.813-12.7a.978.978,0,0,1,.832-.465h12.7a.977.977,0,0,1,0,1.953M53.405,17.031,43.639.481A.978.978,0,0,0,42.8,0H24.243A.978.978,0,0,0,23.4.481L13.636,17.031a.976.976,0,0,0,.012,1.013l.32.513h2.975a2.91,2.91,0,0,1,2.488,1.383l7.3,11.718a2.9,2.9,0,0,1,.251,2.526H42.8a.977.977,0,0,0,.829-.461l9.766-15.679a.976.976,0,0,0,.012-1.013" transform="translate(4.079)" fill="#f1c235" fill-rule="evenodd"/><path d="M18.555,21.61H11.284l-4.6,7.356a.977.977,0,1,1-1.656-1.035l4.883-7.815a.976.976,0,0,1,.828-.459h7.813a.977.977,0,0,1,0,1.953m3.774,19.049,6.836-11.72a.976.976,0,0,0-.015-1.008l-7.3-11.72a.975.975,0,0,0-.829-.461H7.813a.976.976,0,0,0-.844.484L.133,27.955a.98.98,0,0,0,0,.984l6.836,11.72a.976.976,0,0,0,.844.484H21.485a.976.976,0,0,0,.844-.484" transform="translate(0 4.76)" fill="#d17e28" fill-rule="evenodd"/><path d="M39.906,27.75H24.9L18.907,38.017A2.922,2.922,0,0,1,16.912,39.4l5.456,9.354a.974.974,0,0,0,.843.484H36.884a.978.978,0,0,0,.86-.514l6.836-12.7a.977.977,0,0,0-.036-.987Z" transform="translate(5.11 8.387)" fill="#002c54" fill-rule="evenodd"/></g></g></g></g></g></svg>